M48
;Layer_Color=9474304
;FILE_FORMAT=2:4
INCH,TZ
;TYPE=PLATED
T1F00S00C0.0276
T2F00S00C0.0280
T3F00S00C0.0315
T4F00S00C0.0335
T5F00S00C0.0354
T6F00S00C0.0394
T7F00S00C0.0433
T8F00S00C0.1000
%
T01
X68000Y12050
Y13050
X25700Y14350
Y17350
X23510
X22290
X19800
Y14350
T02
X35400Y11200
T03
X77700Y9750
X78700
T04
X33350Y950
Y3950
X74250Y9850
Y13850
X43200Y8809
X42200
X41200
X40200
X39200
X38200
X37200
Y5691
X38200
X39200
X40200
X41200
X42200
X43200
X36200
X35200
X34200
X33200
X32200
X31200
X30200
Y8809
X31200
X32200
X33200
X34200
X35200
X36200
X35400Y10500
X34200
X33000
Y13500
X34200
X35400
X19550Y9900
Y6900
X15150Y6850
Y9850
X12000Y12150
Y16150
T05
X2800Y1950
X3800
X4800
Y2950
X3800
X2800
X5800
Y1950
X6800
X7800
X8800
X9800
Y2950
X8800
X7800
X6800
X11550Y2000
X12550
X13550
X15300
X16300
X17300
X18300
X19900Y2100
X20900
X39350Y2200
X40350
X41350
X42950
X43950
X44950
X45950
X47300Y2150
X48300
X62500Y1950
X63500
X64500
X66050Y1850
X67050
X68050
X69050
X70400
X71400
X74400Y17900
X75400
X77750Y18000
X78750
X37150Y17700
X36150
X35150
X34150
X33150
X32150
X31150
X3100Y17800
X2100
X2150Y14650
Y13650
Y12650
Y11650
Y10650
Y9650
T06
X48652Y17800
X49550
X50448
T07
X76400Y3300
X78400
X78500Y7000
X76500
T08
X900Y900
X78800Y1250
X77000Y16450
X4750Y16700
M30
