G04*
G04 #@! TF.GenerationSoftware,Altium Limited,Altium Designer,21.8.1 (53)*
G04*
G04 Layer_Color=16711935*
%FSLAX25Y25*%
%MOIN*%
G70*
G04*
G04 #@! TF.SameCoordinates,5DBF864A-AE74-4F10-A55B-91717D6EB444*
G04*
G04*
G04 #@! TF.FilePolarity,Negative*
G04*
G01*
G75*
%ADD18O,0.06706X0.07099*%
%ADD19R,0.07099X0.07099*%
%ADD20C,0.07099*%
%ADD21C,0.05524*%
%ADD22R,0.06706X0.06706*%
%ADD23C,0.06706*%
%ADD24C,0.06147*%
%ADD25R,0.06147X0.06147*%
%ADD26C,0.15800*%
%ADD27C,0.06312*%
%ADD28R,0.08083X0.08083*%
%ADD29C,0.08083*%
%ADD30R,0.06706X0.06706*%
%ADD31C,0.05918*%
%ADD32C,0.05800*%
D18*
X777000Y97500D02*
D03*
X787000D02*
D03*
D19*
X504476Y178000D02*
D03*
D20*
X495500D02*
D03*
X486524D02*
D03*
D21*
X680000Y120500D02*
D03*
Y130500D02*
D03*
X257000Y173500D02*
D03*
Y143500D02*
D03*
X198000Y173500D02*
D03*
Y143500D02*
D03*
D22*
X182997Y20000D02*
D03*
X645000Y19500D02*
D03*
X413500Y22000D02*
D03*
X135500Y20000D02*
D03*
X459500Y22000D02*
D03*
X787500Y180000D02*
D03*
X21000Y178000D02*
D03*
X98000Y29500D02*
D03*
X690500Y18500D02*
D03*
X744000Y179000D02*
D03*
X371500Y177000D02*
D03*
D23*
X172997Y20000D02*
D03*
X162997D02*
D03*
X152997D02*
D03*
X635000Y19500D02*
D03*
X625000D02*
D03*
X403500Y22000D02*
D03*
X393500D02*
D03*
X125500Y20000D02*
D03*
X115500D02*
D03*
X429500Y22000D02*
D03*
X439500D02*
D03*
X449500D02*
D03*
X777500Y180000D02*
D03*
X31000Y178000D02*
D03*
X28000Y19500D02*
D03*
X38000D02*
D03*
X48000D02*
D03*
X58000D02*
D03*
X68000D02*
D03*
X78000D02*
D03*
X88000D02*
D03*
X98000D02*
D03*
X28000Y29500D02*
D03*
X38000D02*
D03*
X48000D02*
D03*
X58000D02*
D03*
X68000D02*
D03*
X78000D02*
D03*
X88000D02*
D03*
X660500Y18500D02*
D03*
X670500D02*
D03*
X680500D02*
D03*
X754000Y179000D02*
D03*
X21500Y106500D02*
D03*
Y116500D02*
D03*
Y126500D02*
D03*
Y136500D02*
D03*
Y146500D02*
D03*
X311500Y177000D02*
D03*
X321500D02*
D03*
X331500D02*
D03*
X341500D02*
D03*
X361500D02*
D03*
X351500D02*
D03*
D24*
X302000Y88090D02*
D03*
X312000D02*
D03*
X322000D02*
D03*
X332000D02*
D03*
X342000D02*
D03*
X352000D02*
D03*
X362000D02*
D03*
X372000D02*
D03*
X382000D02*
D03*
X392000D02*
D03*
X402000D02*
D03*
X412000D02*
D03*
X422000D02*
D03*
X432000D02*
D03*
Y56910D02*
D03*
X422000D02*
D03*
X412000D02*
D03*
X402000D02*
D03*
X392000D02*
D03*
X382000D02*
D03*
X342000D02*
D03*
X352000D02*
D03*
X332000D02*
D03*
X322000D02*
D03*
X372000D02*
D03*
X362000D02*
D03*
X312000D02*
D03*
D25*
X302000D02*
D03*
D26*
X47500Y167000D02*
D03*
X9000Y8500D02*
D03*
X770000Y164500D02*
D03*
X788000Y12500D02*
D03*
D27*
X742500Y138500D02*
D03*
Y98500D02*
D03*
X151500D02*
D03*
Y68500D02*
D03*
X195500Y69000D02*
D03*
Y99000D02*
D03*
X333500Y39500D02*
D03*
Y9500D02*
D03*
X120000Y121500D02*
D03*
Y161500D02*
D03*
X354000Y105000D02*
D03*
Y135000D02*
D03*
X342000Y105000D02*
D03*
Y135000D02*
D03*
X330000Y105000D02*
D03*
Y135000D02*
D03*
D28*
X785000Y70000D02*
D03*
X784000Y33000D02*
D03*
D29*
X765000Y70000D02*
D03*
X764000Y33000D02*
D03*
D30*
X21500Y96500D02*
D03*
D31*
X222898Y173500D02*
D03*
X235102D02*
D03*
D32*
X354000Y111000D02*
D03*
M02*
