G04*
G04 #@! TF.GenerationSoftware,Altium Limited,Altium Designer,21.6.4 (81)*
G04*
G04 Layer_Physical_Order=1*
G04 Layer_Color=255*
%FSLAX25Y25*%
%MOIN*%
G70*
G04*
G04 #@! TF.SameCoordinates,A100BF9E-4997-418F-BECE-E597615EEDA1*
G04*
G04*
G04 #@! TF.FilePolarity,Positive*
G04*
G01*
G75*
%ADD12C,0.01000*%
%ADD13R,0.02362X0.04528*%
%ADD19C,0.02000*%
%ADD20C,0.14000*%
%ADD21C,0.04724*%
%ADD22R,0.05906X0.05906*%
%ADD23C,0.05906*%
G36*
X109500Y97000D02*
X102181D01*
Y98835D01*
X100674D01*
X100099Y99219D01*
X99319Y99374D01*
X74510D01*
X11953Y161931D01*
Y165510D01*
X12415Y165701D01*
X37058Y141058D01*
X37720Y140616D01*
X38500Y140461D01*
X100795D01*
X100810Y140436D01*
X101436Y139810D01*
X101581Y139726D01*
Y107693D01*
X101559D01*
Y101165D01*
X105921D01*
Y107693D01*
X105659D01*
Y139904D01*
X106190Y140436D01*
X106633Y141202D01*
X106862Y142057D01*
Y142943D01*
X106633Y143798D01*
X106190Y144564D01*
X105564Y145190D01*
X104798Y145633D01*
X103943Y145862D01*
X103057D01*
X102202Y145633D01*
X101436Y145190D01*
X100810Y144564D01*
X100795Y144539D01*
X39345D01*
X11837Y172047D01*
X11953Y172480D01*
Y173520D01*
X11683Y174526D01*
X11163Y175427D01*
X10427Y176163D01*
X9526Y176683D01*
X8520Y176953D01*
X7480D01*
X6474Y176683D01*
X5573Y176163D01*
X4837Y175427D01*
X4317Y174526D01*
X4047Y173520D01*
Y172480D01*
X4317Y171474D01*
X4837Y170573D01*
X5573Y169837D01*
X6474Y169317D01*
X7480Y169047D01*
X8520D01*
X8953Y169163D01*
X10701Y167415D01*
X10510Y166953D01*
X4047D01*
Y159047D01*
X9069D01*
X70654Y97462D01*
X70463Y97000D01*
X2125D01*
X1876Y195646D01*
X2229Y196000D01*
X26102D01*
X26202Y195500D01*
X25211Y195089D01*
X23900Y194214D01*
X22786Y193100D01*
X21911Y191789D01*
X21307Y190333D01*
X21000Y188788D01*
Y187212D01*
X21307Y185667D01*
X21911Y184211D01*
X22786Y182900D01*
X23900Y181786D01*
X25211Y180911D01*
X26667Y180307D01*
X28212Y180000D01*
X29788D01*
X31334Y180307D01*
X32789Y180911D01*
X34100Y181786D01*
X35214Y182900D01*
X36090Y184211D01*
X36693Y185667D01*
X37000Y187212D01*
Y188788D01*
X36693Y190333D01*
X36090Y191789D01*
X35214Y193100D01*
X34100Y194214D01*
X32789Y195089D01*
X31798Y195500D01*
X31898Y196000D01*
X109500D01*
Y97000D01*
D02*
G37*
%LPC*%
G36*
X8520Y186953D02*
X8500D01*
Y183500D01*
X11953D01*
Y183520D01*
X11683Y184526D01*
X11163Y185427D01*
X10427Y186163D01*
X9526Y186683D01*
X8520Y186953D01*
D02*
G37*
G36*
X7500D02*
X7480D01*
X6474Y186683D01*
X5573Y186163D01*
X4837Y185427D01*
X4317Y184526D01*
X4047Y183520D01*
Y183500D01*
X7500D01*
Y186953D01*
D02*
G37*
G36*
X11953Y182500D02*
X8500D01*
Y179047D01*
X8520D01*
X9526Y179317D01*
X10427Y179837D01*
X11163Y180573D01*
X11683Y181474D01*
X11953Y182480D01*
Y182500D01*
D02*
G37*
G36*
X7500D02*
X4047D01*
Y182480D01*
X4317Y181474D01*
X4837Y180573D01*
X5573Y179837D01*
X6474Y179317D01*
X7480Y179047D01*
X7500D01*
Y182500D01*
D02*
G37*
G36*
X104000Y155847D02*
Y153000D01*
X106847D01*
X106633Y153798D01*
X106190Y154564D01*
X105564Y155190D01*
X104798Y155633D01*
X104000Y155847D01*
D02*
G37*
G36*
X103000D02*
X102202Y155633D01*
X101436Y155190D01*
X100810Y154564D01*
X100367Y153798D01*
X100153Y153000D01*
X103000D01*
Y155847D01*
D02*
G37*
G36*
X106847Y152000D02*
X104000D01*
Y149153D01*
X104798Y149367D01*
X105564Y149810D01*
X106190Y150436D01*
X106633Y151202D01*
X106847Y152000D01*
D02*
G37*
G36*
X103000D02*
X100153D01*
X100367Y151202D01*
X100810Y150436D01*
X101436Y149810D01*
X102202Y149367D01*
X103000Y149153D01*
Y152000D01*
D02*
G37*
G36*
X98441Y107693D02*
X96760D01*
Y104929D01*
X98441D01*
Y107693D01*
D02*
G37*
G36*
X95760D02*
X94079D01*
Y104929D01*
X95760D01*
Y107693D01*
D02*
G37*
G36*
X98441Y103929D02*
X96760D01*
Y101165D01*
X98441D01*
Y103929D01*
D02*
G37*
G36*
X95760D02*
X94079D01*
Y101165D01*
X95760D01*
Y103929D01*
D02*
G37*
%LPD*%
D12*
X103740Y104429D02*
Y106000D01*
X99319Y97335D02*
X100000Y96653D01*
Y95571D02*
Y96653D01*
X103500Y142500D02*
X103620Y142380D01*
D13*
X103740Y104429D02*
D03*
X96260D02*
D03*
X100000Y95571D02*
D03*
D19*
X103620Y106120D02*
X103740Y106000D01*
X103620Y106120D02*
Y142380D01*
X73665Y97335D02*
X99319D01*
X8000Y163000D02*
X73665Y97335D01*
X38500Y142500D02*
X103500D01*
X8000Y173000D02*
X38500Y142500D01*
D20*
X29000Y188000D02*
D03*
X187000Y187000D02*
D03*
X187500Y12500D02*
D03*
X11500Y12000D02*
D03*
D21*
X103500Y152500D02*
D03*
Y142500D02*
D03*
D22*
X8000Y163000D02*
D03*
D23*
Y173000D02*
D03*
Y183000D02*
D03*
M02*
