G04*
G04 #@! TF.GenerationSoftware,Altium Limited,Altium Designer,21.8.1 (53)*
G04*
G04 Layer_Color=65535*
%FSLAX25Y25*%
%MOIN*%
G70*
G04*
G04 #@! TF.SameCoordinates,ED125225-5C5F-433F-9D6F-92EC8C22B427*
G04*
G04*
G04 #@! TF.FilePolarity,Positive*
G04*
G01*
G75*
%ADD10C,0.00984*%
%ADD11C,0.00787*%
%ADD12C,0.01000*%
D10*
X107579Y104429D02*
X106841Y104855D01*
Y104003D01*
X107579Y104429D01*
D11*
X108500Y137500D02*
Y157500D01*
X98500D02*
X108500D01*
X98500Y137500D02*
Y157500D01*
Y137500D02*
X108500D01*
X13000Y158000D02*
Y188000D01*
X3000D02*
X13000D01*
X3000Y158000D02*
Y188000D01*
Y158000D02*
X13000D01*
X105905Y97244D02*
Y100787D01*
X102756Y97244D02*
X105905D01*
X94095D02*
Y100787D01*
Y97244D02*
X97244D01*
D12*
X97899Y111900D02*
Y115898D01*
X96899Y116898D01*
X94900D01*
X93900Y115898D01*
Y111900D01*
X94900Y110900D01*
X96899D01*
X95899Y112899D02*
X97899Y110900D01*
X96899D02*
X97899Y111900D01*
X99898Y110900D02*
X101897D01*
X100898D01*
Y116898D01*
X99898Y115898D01*
X3600Y191400D02*
Y197398D01*
X6599D01*
X7599Y196398D01*
Y194399D01*
X6599Y193399D01*
X3600D01*
X9598Y191400D02*
X11597D01*
X10598D01*
Y197398D01*
X9598Y196398D01*
X14596D02*
X15596Y197398D01*
X17595D01*
X18595Y196398D01*
Y192400D01*
X17595Y191400D01*
X15596D01*
X14596Y192400D01*
Y196398D01*
X103099Y165898D02*
X102099Y166898D01*
X100100D01*
X99100Y165898D01*
Y161900D01*
X100100Y160900D01*
X102099D01*
X103099Y161900D01*
X108097Y160900D02*
Y166898D01*
X105098Y163899D01*
X109097D01*
M02*
